<?xml version="1.0" encoding="UTF-8"?>
<svg width="298px" height="645px" viewBox="0 0 298 645" version="1.1" xmlns="http://www.w3.org/2000/svg" xmlns:xlink="http://www.w3.org/1999/xlink">
    <!-- Generator: Sketch 44.1 (41455) - http://www.bohemiancoding.com/sketch -->
    <title>Fill 1</title>
    <desc>Created with Sketch.</desc>
    <defs></defs>
    <g id="Page-1" stroke="none" stroke-width="1" fill="none" fill-rule="evenodd">
        <g id="Desktop-HD" transform="translate(-591.000000, -290.000000)" fill="#B8E986">
            <g id="Page-1" transform="translate(591.000000, 89.000000)">
                <path d="M271.287681,260.999875 C254.723639,243.141125 245.175118,220.736125 239.109941,200.999875 L58.1024874,200.999875 C52.038563,220.736125 42.4887899,243.141125 25.9247479,260.999875 C-5.37777311,294.749875 3.38693277,324.749875 7.14323529,488.499875 C10.8995378,652.249875 15.9079412,729.749875 12.1516387,737.249875 C8.39533613,744.749875 -6.62862185,762.248625 3.38568067,787.247375 C9.62615126,802.826125 15.5410756,816.201125 30.3296387,825.429875 C47.5222353,836.161125 67.4669496,840.607375 87.412916,842.699875 C127.965958,846.951125 169.203899,846.962375 209.802017,842.699875 C229.745479,840.607375 249.690193,836.161125 266.88279,825.429875 C281.671353,816.201125 287.586277,802.826125 293.826748,787.247375 C303.84105,762.248625 288.817092,744.749875 285.06079,737.249875 C281.304487,729.749875 286.312891,652.249875 290.069193,488.499875 C293.825496,324.749875 302.590202,294.749875 271.287681,260.999875 Z" id="Fill-1"></path>
            </g>
        </g>
    </g>
</svg>