<?xml version="1.0" encoding="UTF-8"?>
<svg width="306px" height="854px" viewBox="0 0 306 854" version="1.1" xmlns="http://www.w3.org/2000/svg" xmlns:xlink="http://www.w3.org/1999/xlink">
    <!-- Generator: Sketch 44.1 (41455) - http://www.bohemiancoding.com/sketch -->
    <title>Fill 1</title>
    <desc>Created with Sketch.</desc>
    <defs></defs>
    <g id="Page-1" stroke="none" stroke-width="1" fill="none" fill-rule="evenodd">
        <g id="Desktop-HD" transform="translate(-587.000000, -85.000000)" stroke="#000000" stroke-width="8">
            <g id="Page-1" transform="translate(591.000000, 89.000000)">
                <path d="M285.06079,736.540971 C281.304487,729.043187 286.312891,651.566082 290.069193,487.864457 C293.825496,324.162832 302.590202,294.171695 271.287681,260.431665 C239.98516,226.691636 233.724655,176.706407 228.716252,159.211577 C223.707849,141.716747 221.492882,137.126853 228.716252,131.719701 C236.228857,126.096362 238.733059,115.474501 233.724655,102.978194 C228.716252,90.4818869 234.976756,89.2322561 236.228857,85.483364 C237.480958,81.7344718 236.228857,26.7507199 236.228857,16.7536742 C236.228857,6.75662836 223.709101,3.00773619 223.707849,3.00773619 C211.883008,-0.532467651 196.151613,0.949594387 183.891042,0.724660857 C147.406076,0.0598573117 109.801731,-1.25350458 73.5045798,3.00773619 C73.5045798,3.00773619 60.9835714,6.75662836 60.9835714,16.7536742 C60.9835714,26.7507199 59.7314706,81.7344718 60.9835714,85.483364 C62.2356723,89.2322561 68.4961765,90.4818869 63.4877731,102.978194 C58.4793697,115.474501 60.9835714,126.096362 68.4961765,131.719701 C75.7195462,137.126853 73.5045798,141.716747 68.4961765,159.211577 C63.4877731,176.706407 57.2272689,226.691636 25.9247479,260.431665 C-5.37777311,294.171695 3.38693277,324.162832 7.14323529,487.864457 C10.8995378,651.566082 15.9079412,729.043187 12.1516387,736.540971 C8.39533613,744.038755 -6.62862185,761.532336 3.38568067,786.523701 C9.62615126,802.097848 15.5410756,815.468897 30.3296387,824.694921 C47.5222353,835.423001 67.4669496,839.867937 87.412916,841.959819 C127.965958,846.209813 169.203899,846.22106 209.802017,841.959819 C229.745479,839.867937 249.690193,835.423001 266.88279,824.694921 C281.671353,815.468897 287.586277,802.097848 293.826748,786.523701 C303.84105,761.532336 288.817092,744.038755 285.06079,736.540971" id="Fill-1"></path>
            </g>
        </g>
    </g>
</svg>